<svg width="28" height="43" viewBox="0 0 28 43" fill="none" xmlns="http://www.w3.org/2000/svg">
<path d="M14 5.05882C18.9127 5.05882 22.9091 9.03 22.9091 13.9118C22.9091 18.7935 18.9127 22.7647 14 22.7647C9.08727 22.7647 5.09091 18.7935 5.09091 13.9118C5.09091 9.03 9.08727 5.05882 14 5.05882ZM16.5455 27.5959C19.7631 27.0047 22.6707 25.3122 24.7632 22.8124C26.8558 20.3125 28.001 17.1633 28 13.9118C28 6.22235 21.7382 0 14 0C6.26182 0 6.48292e-07 6.22235 6.48292e-07 13.9118C-0.000994718 17.1633 1.14423 20.3125 3.23675 22.8124C5.32927 25.3122 8.23689 27.0047 11.4545 27.5959V32.8824H8.90909C7.50909 32.8824 6.36364 34.0206 6.36364 35.4118C6.36364 36.8029 7.50909 37.9412 8.90909 37.9412H11.4545V40.4706C11.4545 41.8618 12.6 43 14 43C15.4 43 16.5455 41.8618 16.5455 40.4706V37.9412H19.0909C20.4909 37.9412 21.6364 36.8029 21.6364 35.4118C21.6364 34.0206 20.4909 32.8824 19.0909 32.8824H16.5455V27.5959Z" fill="black"/>
</svg>
